<svg width="116" height="34" viewBox="0 0 116 34" fill="none" xmlns="http://www.w3.org/2000/svg">
<path d="M3.99999 31.3057H7.05847L11.5327 13.2406C12.1862 14.6783 13.8854 15.6194 15.8198 15.6194C19.7148 15.6194 22.6164 12.4041 22.6164 7.88169C22.6164 4.4311 20.4206 2.05228 17.3621 2.05228C15.4538 2.05228 14.0161 2.86265 12.9704 4.32653L13.075 2.39211H10.2256L3.99999 31.3057ZM12.2123 9.63313C12.2123 6.88834 14.0945 4.74479 16.4733 4.74479C18.3554 4.74479 19.5318 6.07797 19.5318 8.06468C19.5318 10.7833 17.6758 12.9007 15.3231 12.9007C13.3887 12.9007 12.2123 11.646 12.2123 9.63313Z" fill="#EF726D"/>
<path d="M30.0776 15.6194C33.0053 15.6194 35.5671 13.8418 36.4559 11.1493H33.4236C32.8746 12.3779 31.6983 13.0837 30.2344 13.0837C28.2477 13.0837 27.1759 11.8551 27.1759 9.65927V9.58085L36.6651 9.5547L36.8219 8.58749C37.4231 4.69251 35.2535 2.05228 31.4369 2.05228C27.3589 2.05228 24.222 5.42445 24.222 9.84225C24.222 13.4235 26.4701 15.6194 30.0776 15.6194ZM31.2539 4.5618C33.136 4.5618 34.2078 5.76428 33.9203 7.59414H27.5158C28.117 5.79042 29.5548 4.5618 31.2539 4.5618Z" fill="#EF726D"/>
<path d="M48.2179 2.31369C47.7735 2.20913 47.2768 2.15684 46.8063 2.15684C45.1333 2.15684 43.7739 3.01949 43.0681 4.37882L43.1727 2.39211H40.3234L38.2844 15.3057H41.3428L42.3623 8.92732C42.7545 6.44394 44.3752 5.18918 46.5972 5.18918H47.7474L48.2179 2.31369Z" fill="#EF726D"/>
<path d="M48.0257 11.4368C48.0257 13.9464 50.0386 15.5932 53.0448 15.5932C56.4431 15.5932 58.5343 13.9725 58.5343 11.3323C58.5343 9.76383 57.6717 8.74434 55.8157 8.11696L53.646 7.41115C52.6526 7.07132 52.1821 6.57465 52.1821 5.8427C52.1821 4.90163 52.914 4.35268 54.1688 4.35268C55.3974 4.35268 56.1032 5.0062 56.1294 6.18254H59.0833C59.0833 3.69915 57.2273 2.05228 54.4041 2.05228C51.241 2.05228 49.2543 3.64687 49.2543 6.15639C49.2543 7.85555 50.3 8.95346 52.1037 9.52856L54.2995 10.2605C55.2406 10.5742 55.5804 10.9402 55.5804 11.6721C55.5804 12.6393 54.6393 13.2667 53.2539 13.2667C51.8946 13.2667 51.0319 12.587 50.9796 11.4368H48.0257Z" fill="#EF726D"/>
<path d="M60.472 9.76383C60.472 13.2667 62.9554 15.6194 66.6413 15.6194C70.8761 15.6194 74.2221 12.2211 74.2221 7.90783C74.2221 4.40496 71.7387 2.05228 68.0529 2.05228C63.8442 2.05228 60.472 5.45059 60.472 9.76383ZM63.6089 9.52856C63.6089 6.8622 65.5434 4.74479 67.896 4.74479C69.8566 4.74479 71.0852 6.07797 71.0852 8.1431C71.0852 10.7833 69.1769 12.9007 66.8242 12.9007C64.8375 12.9007 63.6089 11.5675 63.6089 9.52856Z" fill="#EF726D"/>
<path d="M78.6906 15.3057L79.7885 8.37837C80.1544 6.10411 81.4615 4.77093 83.3175 4.77093C85.1212 4.77093 86.01 5.99955 85.644 8.11696L85 15.3057H87.4145L88.8332 7.38501C89.3037 4.35268 87.4477 2 84.5461 2C82.8208 2 81.6183 2.65352 80.4943 4.14355V2.39211H77.6711L75.6321 15.3057H78.6906Z" fill="#EF726D"/>
<path d="M94.6136 15.6455C96.548 15.6455 98.2995 14.7567 99.0314 13.3713L98.953 15.3057H101.645L102.9 7.4373C103.423 4.11741 101.489 2.02614 97.8812 2.02614C94.509 2.02614 92.3394 3.69915 91.895 6.62693H94.6397C94.8489 5.16304 95.8422 4.4311 97.5675 4.4311C99.3451 4.4311 100.208 5.31989 99.9463 6.94062L99.9202 7.22817L96.0775 7.568C92.653 7.82941 90.7186 9.45014 90.7186 12.1165C90.7186 14.2078 92.2871 15.6455 94.6136 15.6455ZM95.7899 13.2928C94.5613 13.2928 93.8294 12.7177 93.8294 11.7767C93.8294 10.4958 94.7704 9.73769 96.8879 9.58085L99.6065 9.34558L99.5019 10.0514C99.2144 12.0381 97.7766 13.2928 95.7899 13.2928Z" fill="#EF726D"/>
</svg>
